<svg
        className="w-32 h-32 p-6 text-yellow-500 fill-current animate-[spin_5s_linear_infinite;]"
        viewBox="0 0 512 512"
        xmlns="http://www.w3.org/2000/svg"
      >
        <path d="M256,104c-83.813,0-152,68.187-152,152s68.187,152,152,152,152-68.187,152-152S339.813,104,256,104Zm0,272A120,120,0,1,1,376,256,120.136,120.136,0,0,1,256,376Z"></path>
        <rect
          className="animate-[pulse_1s_cubic-bezier(0.4,_0,_0.6,_1)_infinite;]"
          y="16"
          x="240"
          height="48"
          width="32"
        ></rect>
        <rect
          className="animate-[pulse_2s_cubic-bezier(0.4,_0,_0.6,_1)_infinite;]"
          y="448"
          x="240"
          height="48"
          width="32"
        ></rect>
        <rect
          className="animate-[pulse_1s_cubic-bezier(0.4,_0,_0.6,_1)_infinite;]"
          y="240"
          x="448"
          height="32"
          width="48"
        ></rect>
        <rect
          className="animate-[pulse_2s_cubic-bezier(0.4,_0,_0.6,_1)_infinite;]"
          y="240"
          x="16"
          height="32"
          width="48"
        ></rect>
        <rect
          className="animate-[pulse_1s_cubic-bezier(0.4,_0,_0.6,_1)_infinite;]"
          transform="rotate(-45 416 416)"
          y="393.373"
          x="400"
          height="45.255"
          width="32"
        ></rect>
        <rect
          className="animate-[pulse_2s_cubic-bezier(0.4,_0,_0.6,_1)_infinite;]"
          transform="rotate(-45 96 96)"
          y="73.373"
          x="80"
          height="45.255"
          width="32.001"
        ></rect>
        <rect
          className="animate-[pulse_1s_cubic-bezier(0.4,_0,_0.6,_1)_infinite;]"
          transform="rotate(-45.001 96.002 416.003)"
          y="400"
          x="73.373"
          height="32"
          width="45.255"
        ></rect>
        <rect
          className="animate-[pulse_2s_cubic-bezier(0.4,_0,_0.6,_1)_infinite;]"
          transform="rotate(-45 416 96)"
          y="80"
          x="393.373"
          height="32.001"
          width="45.255"
        ></rect>
      </svg>